<?xml version="1.0" encoding="UTF-8"?>
<svg id="Camada_1" data-name="Camada 1" xmlns="http://www.w3.org/2000/svg" xmlns:xlink="http://www.w3.org/1999/xlink" viewBox="0 0 2435.84 415.81">
  <defs>
    <style>
      .cls-1 {
        fill: #fff;
      }

      .cls-2 {
        fill: url(#Gradiente_sem_nome_56);
      }
    </style>
    <linearGradient id="Gradiente_sem_nome_56" data-name="Gradiente sem nome 56" x1="2174.64" y1="96.43" x2="2174.64" y2="225.01" gradientUnits="userSpaceOnUse">
      <stop offset="0" stop-color="#62c1ef"/>
      <stop offset=".97" stop-color="#1771da"/>
    </linearGradient>
  </defs>
  <path class="cls-1" d="M38.93,135.95c0-15.3,2.45-29.15,7.36-41.53,4.91-12.38,11.75-22.94,20.53-31.67,8.78-8.73,19.24-15.44,31.4-20.12,12.15-4.68,25.43-7.02,39.84-7.02,12.6,0,24.42,1.76,35.45,5.27,11.03,3.51,20.87,8.51,29.51,14.99s15.82,14.36,21.54,23.63c5.72,9.27,9.52,19.67,11.41,31.2.09.72.18,1.4.27,2.03.09.63.22,1.26.41,1.89h-55.37c-.18-.54-.36-1.08-.54-1.62-.18-.54-.36-1.08-.54-1.62-1.44-4.05-3.47-7.74-6.08-11.07-2.61-3.33-5.7-6.19-9.25-8.58-3.56-2.38-7.61-4.25-12.15-5.6-4.55-1.35-9.48-2.03-14.79-2.03-7.2,0-13.64,1.31-19.31,3.92-5.67,2.61-10.45,6.21-14.32,10.8-3.87,4.59-6.82,10.04-8.85,16.34-2.03,6.3-3.04,13.15-3.04,20.53s1.01,14.52,3.04,20.87c2.03,6.35,4.97,11.84,8.85,16.48,3.87,4.64,8.62,8.24,14.25,10.8,5.63,2.57,12,3.85,19.11,3.85,5.4,0,10.35-.65,14.86-1.96,4.5-1.3,8.53-3.11,12.09-5.4,3.56-2.3,6.62-5.04,9.18-8.24,2.57-3.19,4.57-6.73,6.01-10.6.27-.72.54-1.46.81-2.23.27-.76.54-1.51.81-2.23h55.24c-.18.99-.34,1.94-.47,2.84-.14.9-.29,1.85-.47,2.84-1.98,11.34-5.83,21.59-11.55,30.72-5.72,9.14-12.9,16.93-21.54,23.36-8.64,6.44-18.48,11.37-29.51,14.79-11.03,3.42-22.89,5.13-35.59,5.13-14.41,0-27.64-2.36-39.7-7.09-12.07-4.73-22.47-11.46-31.2-20.19-8.73-8.73-15.53-19.31-20.39-31.74s-7.29-26.33-7.29-41.73ZM262.3,135.95c0-15.3,2.57-29.12,7.7-41.46,5.13-12.33,12.22-22.87,21.27-31.6,9.05-8.73,19.83-15.46,32.34-20.19,12.51-4.73,26.11-7.09,40.79-7.09s28.2,2.34,40.58,7.02c12.38,4.68,23.05,11.39,32.01,20.12,8.96,8.73,15.94,19.29,20.93,31.67,5,12.38,7.5,26.22,7.5,41.53s-2.52,29.28-7.56,41.66c-5.04,12.38-12.04,22.96-21,31.74-8.96,8.78-19.65,15.53-32.07,20.26-12.42,4.73-26.02,7.09-40.79,7.09s-28.23-2.39-40.65-7.16c-12.42-4.77-23.16-11.55-32.21-20.33s-16.12-19.36-21.2-31.74c-5.09-12.38-7.63-26.22-7.63-41.53ZM363.99,187.68c7.47,0,14.18-1.3,20.12-3.92,5.94-2.61,10.98-6.23,15.13-10.87,4.14-4.64,7.29-10.13,9.45-16.48,2.16-6.35,3.24-13.26,3.24-20.73s-1.1-14.09-3.31-20.39c-2.21-6.3-5.36-11.75-9.45-16.34-4.1-4.59-9.12-8.21-15.06-10.87-5.94-2.65-12.65-3.98-20.12-3.98s-14.18,1.33-20.12,3.98c-5.94,2.66-10.99,6.28-15.13,10.87-4.14,4.59-7.32,10.04-9.52,16.34-2.21,6.3-3.31,13.1-3.31,20.39s1.1,14.38,3.31,20.73c2.2,6.35,5.38,11.84,9.52,16.48,4.14,4.64,9.18,8.26,15.13,10.87,5.94,2.61,12.65,3.92,20.12,3.92ZM683.79,128.25h-2.7l-40.52,105.2h-48.21l-41.46-105.88h-2.7v105.88h-51.32V38.45h66.44l51.72,130.59h2.7l51.05-130.59h66.31v195.01h-51.32v-105.2ZM771.3,38.58h82.79c10.44,0,20.12,1.53,29.04,4.59,8.91,3.06,16.61,7.56,23.09,13.51,6.48,5.94,11.57,13.28,15.26,22.01,3.69,8.73,5.54,18.82,5.54,30.25s-1.82,21.68-5.47,30.45c-3.65,8.78-8.71,16.14-15.19,22.08s-14.18,10.42-23.09,13.44c-8.91,3.02-18.68,4.52-29.31,4.52h-31.33v54.02h-51.32V38.58ZM875.02,108.54c0-4.77-.86-8.82-2.57-12.15-1.71-3.33-4.05-6.03-7.02-8.1-2.97-2.07-6.46-3.6-10.47-4.59-4.01-.99-8.31-1.49-12.9-1.49h-19.45v53.07h19.31c4.77,0,9.16-.49,13.17-1.49,4-.99,7.5-2.57,10.47-4.73s5.29-4.93,6.96-8.31c1.66-3.38,2.5-7.45,2.5-12.22ZM1006.29,233.46h-51.32V38.45h94.13c10.44,0,19.49,1.69,27.15,5.06,7.65,3.38,13.95,8.04,18.91,13.98,4.95,5.94,8.62,13.01,11.01,21.2,2.38,8.19,3.58,17.11,3.58,26.74,0,6.39-.74,12.47-2.23,18.23-1.49,5.76-3.67,11.03-6.55,15.8-2.88,4.77-6.48,9.03-10.8,12.76-4.32,3.74-9.32,6.78-14.99,9.12l39.3,72.12h-54.02l-34.57-66.85h-19.58v66.85ZM1006.29,127.17h29.71c2.34,0,4.79-.25,7.36-.74,2.57-.49,4.97-1.51,7.23-3.04,2.25-1.53,4.1-3.78,5.54-6.75,1.44-2.97,2.16-6.93,2.16-11.88s-.72-9.09-2.16-12.15c-1.44-3.06-3.24-5.4-5.4-7.02s-4.48-2.68-6.96-3.17c-2.48-.49-4.71-.74-6.68-.74h-30.79v45.51ZM1186.85,38.45h66.98l62.66,195.01h-54.16l-12.42-42h-59.56l-12.02,42h-54.16l62.66-195.01ZM1238.04,151.35l-17.15-58.07h-2.7l-16.48,58.07h36.33Z"/>
  <path class="cls-2" d="M1931.42,234.5v-12.07c0-8.11,1.21-15.07,3.64-20.88,2.43-5.81,5.65-10.78,9.68-14.9,4.02-4.12,8.65-7.52,13.89-10.2,5.24-2.68,10.63-4.92,16.19-6.71,5.43-1.72,10.43-3.45,14.99-5.17,4.56-1.72,8.51-3.74,11.83-6.04,3.32-2.3,5.91-5.04,7.76-8.24,1.85-3.19,2.78-7.15,2.78-11.88,0-4.28-.75-8.01-2.25-11.21-1.5-3.19-3.58-5.87-6.23-8.05-2.65-2.17-5.76-3.78-9.34-4.84-3.58-1.05-7.44-1.58-11.59-1.58s-8.03.69-11.64,2.06c-3.61,1.37-6.75,3.27-9.44,5.7-2.68,2.43-4.79,5.33-6.32,8.72-1.53,3.39-2.3,7.09-2.3,11.11v4.6h-20.88v-4.79c0-7.22,1.29-13.67,3.88-19.35,2.59-5.68,6.15-10.5,10.68-14.47,4.53-3.96,9.87-6.99,16-9.1,6.13-2.11,12.74-3.16,19.83-3.16s13.89.86,20.02,2.59,11.45,4.39,15.95,8c4.5,3.61,8.03,8.22,10.59,13.84,2.55,5.62,3.83,12.33,3.83,20.12,0,5.17-.56,9.69-1.68,13.55-1.12,3.86-2.72,7.27-4.79,10.2-2.08,2.94-4.54,5.49-7.38,7.66-2.84,2.17-5.99,4.12-9.44,5.84-3.45,1.72-7.14,3.34-11.06,4.84-3.93,1.5-7.97,3.05-12.12,4.65-4.09,1.53-8.03,3.15-11.83,4.84-3.8,1.69-7.18,3.61-10.15,5.75-2.97,2.14-5.4,4.63-7.28,7.47-1.88,2.84-3.02,6.21-3.4,10.11v2.97h80.37v18.01h-102.79ZM2110.75,236.7c-8.81,0-16.51-1.37-23.09-4.12-6.58-2.75-12.06-6.64-16.43-11.69-4.38-5.04-7.63-11.14-9.77-18.3-2.14-7.15-3.21-15.14-3.21-23.95v-27.11c0-8.94,1.09-16.96,3.26-24.04,2.17-7.09,5.44-13.11,9.82-18.06,4.37-4.95,9.85-8.73,16.43-11.35,6.58-2.62,14.24-3.93,22.99-3.93s16.49,1.31,23.04,3.93c6.55,2.62,12.01,6.39,16.38,11.3,4.37,4.92,7.65,10.94,9.82,18.06,2.17,7.12,3.26,15.15,3.26,24.09v27.11c0,8.88-1.07,16.89-3.21,24.04-2.14,7.15-5.4,13.25-9.77,18.3-4.38,5.05-9.85,8.93-16.43,11.64-6.58,2.71-14.27,4.07-23.09,4.07ZM2110.75,217.92c5.87,0,10.84-1.02,14.9-3.07,4.05-2.04,7.36-4.84,9.91-8.38,2.55-3.54,4.41-7.69,5.56-12.45,1.15-4.76,1.72-9.85,1.72-15.28v-27.21c0-5.36-.59-10.39-1.77-15.09-1.18-4.69-3.07-8.78-5.65-12.26-2.59-3.48-5.91-6.21-9.96-8.19-4.06-1.98-8.96-2.97-14.7-2.97s-10.35,1.01-14.37,3.02c-4.02,2.01-7.31,4.74-9.87,8.19-2.56,3.45-4.44,7.52-5.65,12.21-1.21,4.69-1.82,9.72-1.82,15.09v27.21c0,5.43.59,10.52,1.77,15.28,1.18,4.76,3.03,8.91,5.56,12.45,2.52,3.54,5.8,6.34,9.82,8.38,4.02,2.04,8.88,3.07,14.56,3.07ZM2190.64,234.5v-12.07c0-8.11,1.21-15.07,3.64-20.88,2.43-5.81,5.65-10.78,9.68-14.9,4.02-4.12,8.65-7.52,13.89-10.2,5.24-2.68,10.63-4.92,16.19-6.71,5.43-1.72,10.43-3.45,14.99-5.17,4.56-1.72,8.51-3.74,11.83-6.04,3.32-2.3,5.91-5.04,7.76-8.24,1.85-3.19,2.78-7.15,2.78-11.88,0-4.28-.75-8.01-2.25-11.21-1.5-3.19-3.58-5.87-6.23-8.05-2.65-2.17-5.76-3.78-9.34-4.84-3.58-1.05-7.44-1.58-11.59-1.58s-8.03.69-11.64,2.06c-3.61,1.37-6.75,3.27-9.44,5.7-2.68,2.43-4.79,5.33-6.32,8.72-1.53,3.39-2.3,7.09-2.3,11.11v4.6h-20.88v-4.79c0-7.22,1.29-13.67,3.88-19.35,2.59-5.68,6.15-10.5,10.68-14.47,4.53-3.96,9.87-6.99,16-9.1,6.13-2.11,12.74-3.16,19.83-3.16s13.89.86,20.02,2.59c6.13,1.72,11.45,4.39,15.95,8,4.5,3.61,8.03,8.22,10.59,13.84,2.55,5.62,3.83,12.33,3.83,20.12,0,5.17-.56,9.69-1.68,13.55-1.12,3.86-2.72,7.27-4.79,10.2-2.08,2.94-4.54,5.49-7.38,7.66-2.84,2.17-5.99,4.12-9.44,5.84s-7.14,3.34-11.06,4.84c-3.93,1.5-7.97,3.05-12.12,4.65-4.09,1.53-8.03,3.15-11.83,4.84-3.8,1.69-7.18,3.61-10.15,5.75-2.97,2.14-5.4,4.63-7.28,7.47-1.88,2.84-3.02,6.21-3.4,10.11v2.97h80.37v18.01h-102.79ZM2368.72,236.7c-6.96,0-13.65-1.29-20.07-3.88s-12.06-6.62-16.91-12.12c-4.85-5.49-8.73-12.56-11.64-21.22-2.91-8.65-4.36-19.05-4.36-31.18v-.19c0-11.69,1.25-22.11,3.74-31.28,2.49-9.16,6.08-16.94,10.78-23.33,4.69-6.39,10.41-11.26,17.15-14.61,6.74-3.35,14.35-5.03,22.85-5.03,6.13,0,11.8.85,17,2.54,5.2,1.69,9.82,4.07,13.84,7.14,4.02,3.07,7.39,6.72,10.11,10.97,2.71,4.25,4.61,8.93,5.7,14.03l.19,1.15h-20.88l-.38-.77c-1.72-4.92-4.87-8.88-9.44-11.88-4.57-3-10.17-4.5-16.81-4.5-4.66,0-8.73.85-12.21,2.54-3.48,1.69-6.47,3.96-8.96,6.8-2.49,2.84-4.55,6.12-6.18,9.82-1.63,3.7-2.92,7.57-3.88,11.59-.96,4.02-1.63,8.09-2.01,12.21-.38,4.12-.57,7.97-.57,11.54h.86c1.28-3.19,3.03-6.19,5.27-9,2.23-2.81,4.93-5.28,8.09-7.42,3.16-2.14,6.74-3.83,10.73-5.08,3.99-1.25,8.35-1.87,13.08-1.87,6.39,0,12.26,1.17,17.63,3.5,5.36,2.33,10.01,5.52,13.94,9.58,3.93,4.06,6.99,8.88,9.2,14.47,2.2,5.59,3.3,11.64,3.3,18.15,0,6.83-1.23,13.14-3.69,18.92-2.46,5.78-5.88,10.78-10.25,14.99-4.38,4.21-9.56,7.5-15.57,9.87-6,2.36-12.55,3.54-19.64,3.54ZM2339.7,189.09c0,4.02.73,7.79,2.2,11.3,1.47,3.51,3.48,6.58,6.04,9.2,2.55,2.62,5.59,4.68,9.1,6.18,3.51,1.5,7.28,2.25,11.3,2.25s7.68-.72,11.16-2.16c3.48-1.44,6.5-3.42,9.05-5.94,2.55-2.52,4.56-5.51,6.04-8.96,1.47-3.45,2.2-7.15,2.2-11.11s-.7-7.65-2.11-11.06c-1.41-3.42-3.37-6.37-5.89-8.86-2.52-2.49-5.52-4.44-9-5.84-3.48-1.4-7.27-2.11-11.35-2.11s-7.78.69-11.26,2.06c-3.48,1.37-6.51,3.29-9.1,5.75-2.59,2.46-4.63,5.33-6.13,8.62-1.5,3.29-2.25,6.85-2.25,10.68Z"/>
  <path class="cls-1" d="M44.84,317.98c-1.88,3.62-2.81,7.82-2.81,12.59s.94,8.96,2.81,12.55c1.88,3.59,4.47,6.36,7.76,8.29,3.3,1.93,7.01,2.9,11.14,2.9,4.67,0,8.65-1.06,11.95-3.18,3.3-2.12,5.75-5.05,7.36-8.81h6.6c-2.04,5.37-5.31,9.52-9.82,12.47-4.51,2.95-9.87,4.42-16.09,4.42-5.15,0-9.82-1.22-14-3.66-4.18-2.44-7.48-5.83-9.9-10.18-2.41-4.35-3.62-9.28-3.62-14.8s1.21-10.47,3.62-14.84c2.41-4.37,5.71-7.78,9.9-10.22,4.18-2.44,8.85-3.66,14-3.66,6.28,0,11.65,1.49,16.13,4.46,4.48,2.98,7.74,7.17,9.78,12.59h-6.6c-1.61-3.81-4.06-6.78-7.36-8.93-3.3-2.15-7.28-3.22-11.95-3.22-4.13,0-7.85.97-11.14,2.9-3.3,1.93-5.89,4.71-7.76,8.33ZM150.32,315.72c2.41,4.37,3.62,9.32,3.62,14.84s-1.21,10.47-3.62,14.84c-2.41,4.37-5.74,7.78-9.98,10.22-4.24,2.44-8.99,3.66-14.24,3.66s-9.92-1.22-14.16-3.66c-4.24-2.44-7.58-5.85-10.02-10.22-2.44-4.37-3.66-9.32-3.66-14.84s1.22-10.47,3.66-14.84c2.44-4.37,5.78-7.78,10.02-10.22,4.24-2.44,8.96-3.66,14.16-3.66s10,1.22,14.24,3.66c4.24,2.44,7.56,5.85,9.98,10.22ZM148.14,330.57c0-4.77-.97-8.96-2.9-12.55-1.93-3.59-4.56-6.36-7.89-8.29-3.33-1.93-7.08-2.9-11.26-2.9s-7.94.97-11.26,2.9c-3.33,1.93-5.95,4.69-7.88,8.29-1.93,3.59-2.9,7.78-2.9,12.55s.97,8.97,2.9,12.59c1.93,3.62,4.56,6.4,7.88,8.33,3.33,1.93,7.08,2.9,11.26,2.9s7.94-.97,11.26-2.9c3.33-1.93,5.95-4.71,7.89-8.33,1.93-3.62,2.9-7.82,2.9-12.59ZM201,349.72l-31.14-47.23h-5.63v56.24h5.63v-47.31l31.14,47.31h5.63v-56.24h-5.63v47.23ZM242.44,333.46h23.65c-.27,4.18-1.36,7.84-3.26,10.98-1.9,3.14-4.43,5.55-7.56,7.24-3.14,1.69-6.66,2.53-10.58,2.53-4.18,0-7.94-.97-11.26-2.9-3.33-1.93-5.95-4.69-7.88-8.29-1.93-3.59-2.9-7.75-2.9-12.47s.97-8.86,2.9-12.43c1.93-3.57,4.56-6.32,7.88-8.25,3.33-1.93,7.08-2.9,11.26-2.9,4.45,0,8.33,1.06,11.63,3.18,3.3,2.12,5.75,5.03,7.36,8.73h6.6c-2.04-5.36-5.31-9.55-9.82-12.55-4.51-3-9.76-4.51-15.77-4.51-5.2,0-9.92,1.22-14.16,3.66-4.24,2.44-7.58,5.85-10.02,10.22-2.44,4.37-3.66,9.32-3.66,14.84s1.22,10.47,3.66,14.84c2.44,4.37,5.78,7.78,10.02,10.22,4.24,2.44,8.96,3.66,14.16,3.66s9.59-1.15,13.64-3.46c4.05-2.31,7.28-5.46,9.7-9.45,2.41-3.99,3.75-8.46,4.02-13.39v-4.1h-29.61v4.59ZM304.55,334.83l14.48,23.9h-6.76l-13.92-23.49h-10.38v23.49h-5.63v-56.24h16.9c6.28,0,11.03,1.5,14.28,4.51,3.25,3,4.87,6.95,4.87,11.83,0,4.08-1.17,7.55-3.5,10.42-2.33,2.87-5.78,4.73-10.34,5.59ZM299.32,330.65c4.4,0,7.71-1.07,9.94-3.22,2.23-2.15,3.34-5.01,3.34-8.61s-1.07-6.56-3.22-8.57-5.52-3.02-10.14-3.02h-11.26v23.41h11.34ZM329.57,358.73h29.37v-4.67h-23.73v-21.32h21.32v-4.67h-21.32v-21h23.73v-4.67h-29.37v56.32ZM397.15,331.17c-2.25-.99-5.2-2-8.85-3.02-3.17-.86-5.67-1.66-7.52-2.41-1.85-.75-3.39-1.85-4.63-3.3-1.23-1.45-1.85-3.35-1.85-5.71,0-3.11,1.13-5.56,3.38-7.36,2.25-1.8,5.07-2.69,8.45-2.69,3.65,0,6.54.9,8.69,2.69,2.15,1.8,3.41,3.85,3.78,6.16h6.11c-.48-4.02-2.32-7.31-5.51-9.86s-7.39-3.82-12.59-3.82c-3.54,0-6.68.64-9.41,1.93-2.74,1.29-4.85,3.07-6.36,5.35s-2.25,4.87-2.25,7.76c0,3.49.78,6.25,2.33,8.29,1.55,2.04,3.43,3.54,5.63,4.5,2.2.97,5.18,1.96,8.93,2.98,3.22.86,5.74,1.65,7.56,2.37,1.82.73,3.35,1.83,4.59,3.3,1.23,1.47,1.85,3.42,1.85,5.83,0,3.01-1.12,5.48-3.34,7.44-2.23,1.96-5.24,2.94-9.05,2.94-4.13,0-7.27-1.03-9.41-3.1-2.15-2.06-3.35-4.46-3.62-7.2h-5.95c.11,2.84.97,5.42,2.57,7.72,1.61,2.31,3.82,4.1,6.64,5.39,2.81,1.29,6.07,1.93,9.77,1.93s7.08-.72,9.82-2.17c2.73-1.45,4.8-3.35,6.2-5.71,1.39-2.36,2.09-4.85,2.09-7.48,0-3.43-.78-6.17-2.33-8.21-1.56-2.04-3.46-3.55-5.71-4.54ZM443.17,331.17c-2.25-.99-5.2-2-8.85-3.02-3.17-.86-5.67-1.66-7.52-2.41-1.85-.75-3.39-1.85-4.63-3.3-1.23-1.45-1.85-3.35-1.85-5.71,0-3.11,1.13-5.56,3.38-7.36,2.25-1.8,5.07-2.69,8.45-2.69,3.65,0,6.54.9,8.69,2.69,2.15,1.8,3.41,3.85,3.78,6.16h6.12c-.48-4.02-2.32-7.31-5.51-9.86-3.19-2.55-7.39-3.82-12.59-3.82-3.54,0-6.68.64-9.41,1.93-2.74,1.29-4.85,3.07-6.36,5.35s-2.25,4.87-2.25,7.76c0,3.49.78,6.25,2.33,8.29,1.55,2.04,3.43,3.54,5.63,4.5,2.2.97,5.18,1.96,8.93,2.98,3.22.86,5.74,1.65,7.56,2.37,1.82.73,3.35,1.83,4.59,3.3,1.23,1.47,1.85,3.42,1.85,5.83,0,3.01-1.12,5.48-3.34,7.44-2.23,1.96-5.24,2.94-9.05,2.94-4.13,0-7.27-1.03-9.41-3.1-2.15-2.06-3.35-4.46-3.62-7.2h-5.95c.11,2.84.97,5.42,2.57,7.72,1.61,2.31,3.82,4.1,6.64,5.39,2.81,1.29,6.07,1.93,9.77,1.93s7.08-.72,9.82-2.17c2.73-1.45,4.8-3.35,6.2-5.71,1.39-2.36,2.09-4.85,2.09-7.48,0-3.43-.78-6.17-2.33-8.21-1.56-2.04-3.46-3.55-5.71-4.54ZM511.56,315.72c2.41,4.37,3.62,9.32,3.62,14.84s-1.21,10.47-3.62,14.84c-2.41,4.37-5.74,7.78-9.98,10.22-4.24,2.44-8.99,3.66-14.24,3.66s-9.92-1.22-14.16-3.66c-4.24-2.44-7.58-5.85-10.02-10.22-2.44-4.37-3.66-9.32-3.66-14.84s1.22-10.47,3.66-14.84c2.44-4.37,5.78-7.78,10.02-10.22,4.24-2.44,8.96-3.66,14.16-3.66s10,1.22,14.24,3.66c4.24,2.44,7.56,5.85,9.98,10.22ZM509.39,330.57c0-4.77-.97-8.96-2.9-12.55-1.93-3.59-4.56-6.36-7.89-8.29-3.33-1.93-7.08-2.9-11.26-2.9s-7.94.97-11.26,2.9c-3.33,1.93-5.95,4.69-7.88,8.29-1.93,3.59-2.9,7.78-2.9,12.55s.97,8.97,2.9,12.59c1.93,3.62,4.56,6.4,7.88,8.33,3.33,1.93,7.08,2.9,11.26,2.9s7.94-.97,11.26-2.9c3.33-1.93,5.95-4.71,7.89-8.33,1.93-3.62,2.9-7.82,2.9-12.59ZM584.29,349.72l-31.14-47.23h-5.63v56.24h5.63v-47.31l31.14,47.31h5.63v-56.24h-5.63v47.23ZM625.72,303.21l20.44,55.51h-5.95l-4.91-13.36h-25.59l-4.91,13.36h-5.95l20.52-55.51h6.36ZM633.61,340.71l-11.1-30.41-11.1,30.41h22.21ZM668.97,309.65c3.3-1.93,7.01-2.9,11.14-2.9,4.67,0,8.65,1.07,11.95,3.22,3.3,2.15,5.75,5.12,7.36,8.93h6.6c-2.04-5.42-5.3-9.61-9.78-12.59s-9.86-4.46-16.13-4.46c-5.15,0-9.82,1.22-14,3.66-4.18,2.44-7.48,5.85-9.9,10.22-2.41,4.37-3.62,9.32-3.62,14.84s1.21,10.46,3.62,14.8c2.41,4.34,5.71,7.74,9.9,10.18,4.18,2.44,8.85,3.66,14,3.66,6.22,0,11.58-1.47,16.09-4.42,4.51-2.95,7.78-7.11,9.82-12.47h-6.6c-1.61,3.76-4.06,6.69-7.36,8.81-3.3,2.12-7.28,3.18-11.95,3.18-4.13,0-7.84-.97-11.14-2.9-3.3-1.93-5.89-4.69-7.76-8.29-1.88-3.59-2.81-7.78-2.81-12.55s.94-8.97,2.81-12.59,4.47-6.4,7.76-8.33ZM717.2,358.73h5.63v-56.24h-5.63v56.24ZM785.1,315.72c2.41,4.37,3.62,9.32,3.62,14.84s-1.21,10.47-3.62,14.84c-2.41,4.37-5.74,7.78-9.98,10.22-4.24,2.44-8.99,3.66-14.24,3.66s-9.92-1.22-14.16-3.66c-4.24-2.44-7.58-5.85-10.02-10.22-2.44-4.37-3.66-9.32-3.66-14.84s1.22-10.47,3.66-14.84c2.44-4.37,5.78-7.78,10.02-10.22,4.24-2.44,8.96-3.66,14.16-3.66s10,1.22,14.24,3.66c4.24,2.44,7.56,5.85,9.98,10.22ZM782.93,330.57c0-4.77-.97-8.96-2.9-12.55-1.93-3.59-4.56-6.36-7.89-8.29-3.33-1.93-7.08-2.9-11.26-2.9s-7.94.97-11.26,2.9c-3.33,1.93-5.95,4.69-7.88,8.29-1.93,3.59-2.9,7.78-2.9,12.55s.97,8.97,2.9,12.59c1.93,3.62,4.56,6.4,7.88,8.33,3.33,1.93,7.08,2.9,11.26,2.9s7.94-.97,11.26-2.9c3.33-1.93,5.95-4.71,7.89-8.33,1.93-3.62,2.9-7.82,2.9-12.59ZM835.79,349.72l-31.14-47.23h-5.63v56.24h5.63v-47.31l31.14,47.31h5.63v-56.24h-5.63v47.23ZM877.23,303.21l20.44,55.51h-5.95l-4.91-13.36h-25.59l-4.91,13.36h-5.95l20.52-55.51h6.36ZM885.11,340.71l-11.1-30.41-11.1,30.41h22.21ZM912.3,302.49h-5.63v56.24h25.83v-4.59h-20.19v-51.65ZM1005.47,315.6c2.36,4.24,3.54,9.28,3.54,15.13s-1.18,10.79-3.54,15c-2.36,4.21-5.77,7.43-10.22,9.66-4.45,2.23-9.79,3.34-16.01,3.34h-16.65v-56.24h16.65c6.22,0,11.56,1.13,16.01,3.38,4.45,2.25,7.86,5.5,10.22,9.74ZM1003.3,330.73c0-7.4-2.05-13.18-6.15-17.34-4.1-4.16-10.07-6.24-17.9-6.24h-11.02v46.91h11.02c7.83,0,13.8-2.05,17.9-6.16,4.1-4.1,6.15-9.83,6.15-17.18ZM1019.39,358.73h29.37v-4.67h-23.73v-21.32h21.32v-4.67h-21.32v-21h23.73v-4.67h-29.37v56.32ZM1095.7,309.65c3.3-1.93,7.01-2.9,11.14-2.9,4.67,0,8.65,1.07,11.95,3.22,3.3,2.15,5.75,5.12,7.36,8.93h6.6c-2.04-5.42-5.3-9.61-9.78-12.59-4.48-2.98-9.86-4.46-16.13-4.46-5.15,0-9.82,1.22-14,3.66-4.18,2.44-7.48,5.85-9.9,10.22-2.41,4.37-3.62,9.32-3.62,14.84s1.21,10.46,3.62,14.8c2.41,4.34,5.71,7.74,9.9,10.18,4.18,2.44,8.85,3.66,14,3.66,6.22,0,11.58-1.47,16.09-4.42,4.51-2.95,7.78-7.11,9.82-12.47h-6.6c-1.61,3.76-4.06,6.69-7.36,8.81-3.3,2.12-7.28,3.18-11.95,3.18-4.13,0-7.84-.97-11.14-2.9-3.3-1.93-5.89-4.69-7.76-8.29-1.88-3.59-2.82-7.78-2.82-12.55s.94-8.97,2.82-12.59c1.88-3.62,4.47-6.4,7.76-8.33ZM1193.41,315.72c2.41,4.37,3.62,9.32,3.62,14.84s-1.21,10.47-3.62,14.84c-2.41,4.37-5.74,7.78-9.98,10.22-4.24,2.44-8.98,3.66-14.24,3.66s-9.92-1.22-14.16-3.66c-4.24-2.44-7.58-5.85-10.02-10.22-2.44-4.37-3.66-9.32-3.66-14.84s1.22-10.47,3.66-14.84c2.44-4.37,5.78-7.78,10.02-10.22,4.24-2.44,8.96-3.66,14.16-3.66s10,1.22,14.24,3.66c4.24,2.44,7.56,5.85,9.98,10.22ZM1191.24,330.57c0-4.77-.97-8.96-2.9-12.55-1.93-3.59-4.56-6.36-7.88-8.29-3.33-1.93-7.08-2.9-11.26-2.9s-7.94.97-11.27,2.9c-3.32,1.93-5.95,4.69-7.88,8.29-1.93,3.59-2.9,7.78-2.9,12.55s.96,8.97,2.9,12.59c1.93,3.62,4.56,6.4,7.88,8.33,3.33,1.93,7.08,2.9,11.27,2.9s7.94-.97,11.26-2.9c3.33-1.93,5.95-4.71,7.88-8.33,1.93-3.62,2.9-7.82,2.9-12.59ZM1234.77,351.33l-21.48-48.11h-5.95v55.51h5.63v-44.17l19.79,44.17h4.1l19.79-44.33v44.33h5.63v-55.51h-6.03l-21.48,48.11ZM1306.25,306.91c3.19,2.95,4.79,6.87,4.79,11.75s-1.58,8.72-4.75,11.67c-3.16,2.95-7.91,4.43-14.24,4.43h-11.34v23.98h-5.63v-56.24h16.98c6.27,0,11.01,1.47,14.2,4.42ZM1305.24,318.66c0-3.75-1.05-6.6-3.14-8.53-2.09-1.93-5.45-2.9-10.06-2.9h-11.34v22.69h11.34c8.79,0,13.19-3.75,13.19-11.26ZM1342.66,334.83l14.48,23.9h-6.76l-13.92-23.49h-10.38v23.49h-5.63v-56.24h16.9c6.28,0,11.04,1.5,14.28,4.51,3.24,3,4.87,6.95,4.87,11.83,0,4.08-1.17,7.55-3.5,10.42-2.33,2.87-5.78,4.73-10.34,5.59ZM1337.43,330.65c4.4,0,7.71-1.07,9.94-3.22,2.22-2.15,3.34-5.01,3.34-8.61s-1.08-6.56-3.22-8.57c-2.15-2.01-5.53-3.02-10.14-3.02h-11.26v23.41h11.34ZM1390.69,303.21l20.44,55.51h-5.95l-4.91-13.36h-25.59l-4.91,13.36h-5.95l20.52-55.51h6.36ZM1398.57,340.71l-11.11-30.41-11.1,30.41h22.21ZM1447.25,331.17c-2.25-.99-5.2-2-8.85-3.02-3.17-.86-5.67-1.66-7.52-2.41-1.85-.75-3.39-1.85-4.63-3.3-1.23-1.45-1.85-3.35-1.85-5.71,0-3.11,1.13-5.56,3.38-7.36,2.25-1.8,5.07-2.69,8.45-2.69,3.65,0,6.54.9,8.69,2.69,2.15,1.8,3.41,3.85,3.78,6.16h6.12c-.48-4.02-2.32-7.31-5.51-9.86s-7.39-3.82-12.59-3.82c-3.54,0-6.68.64-9.41,1.93-2.73,1.29-4.85,3.07-6.36,5.35-1.5,2.28-2.25,4.87-2.25,7.76,0,3.49.78,6.25,2.33,8.29,1.55,2.04,3.43,3.54,5.63,4.5,2.2.97,5.18,1.96,8.93,2.98,3.22.86,5.74,1.65,7.56,2.37,1.83.73,3.35,1.83,4.59,3.3,1.23,1.47,1.85,3.42,1.85,5.83,0,3.01-1.11,5.48-3.34,7.44-2.22,1.96-5.24,2.94-9.05,2.94-4.13,0-7.27-1.03-9.41-3.1-2.15-2.06-3.35-4.46-3.62-7.2h-5.95c.11,2.84.96,5.42,2.57,7.72,1.61,2.31,3.82,4.1,6.64,5.39,2.82,1.29,6.08,1.93,9.78,1.93s7.08-.72,9.82-2.17c2.74-1.45,4.8-3.35,6.2-5.71,1.4-2.36,2.09-4.85,2.09-7.48,0-3.43-.78-6.17-2.33-8.21-1.56-2.04-3.46-3.55-5.71-4.54ZM1531.09,315.6c2.36,4.24,3.54,9.28,3.54,15.13s-1.18,10.79-3.54,15c-2.36,4.21-5.77,7.43-10.22,9.66-4.45,2.23-9.79,3.34-16.01,3.34h-16.65v-56.24h16.65c6.22,0,11.56,1.13,16.01,3.38,4.45,2.25,7.86,5.5,10.22,9.74ZM1528.91,330.73c0-7.4-2.05-13.18-6.16-17.34-4.1-4.16-10.07-6.24-17.9-6.24h-11.02v46.91h11.02c7.83,0,13.8-2.05,17.9-6.16,4.1-4.1,6.16-9.83,6.16-17.18ZM1568.01,303.21l20.44,55.51h-5.95l-4.91-13.36h-25.59l-4.91,13.36h-5.95l20.52-55.51h6.36ZM1575.9,340.71l-11.11-30.41-11.1,30.41h22.21ZM1646.62,331.17c-2.25-.99-5.2-2-8.85-3.02-3.17-.86-5.67-1.66-7.52-2.41-1.85-.75-3.39-1.85-4.63-3.3-1.23-1.45-1.85-3.35-1.85-5.71,0-3.11,1.13-5.56,3.38-7.36,2.25-1.8,5.07-2.69,8.45-2.69,3.65,0,6.54.9,8.69,2.69,2.15,1.8,3.41,3.85,3.78,6.16h6.12c-.48-4.02-2.32-7.31-5.51-9.86s-7.39-3.82-12.59-3.82c-3.54,0-6.68.64-9.41,1.93-2.73,1.29-4.85,3.07-6.36,5.35-1.5,2.28-2.25,4.87-2.25,7.76,0,3.49.78,6.25,2.33,8.29,1.55,2.04,3.43,3.54,5.63,4.5,2.2.97,5.18,1.96,8.93,2.98,3.22.86,5.74,1.65,7.56,2.37,1.83.73,3.35,1.83,4.59,3.3,1.23,1.47,1.85,3.42,1.85,5.83,0,3.01-1.11,5.48-3.34,7.44-2.22,1.96-5.24,2.94-9.05,2.94-4.13,0-7.27-1.03-9.41-3.1-2.15-2.06-3.35-4.46-3.62-7.2h-5.95c.11,2.84.96,5.42,2.57,7.72,1.61,2.31,3.82,4.1,6.64,5.39,2.82,1.29,6.08,1.93,9.78,1.93s7.08-.72,9.82-2.17c2.74-1.45,4.8-3.35,6.2-5.71,1.4-2.36,2.09-4.85,2.09-7.48,0-3.43-.78-6.17-2.33-8.21-1.56-2.04-3.46-3.55-5.71-4.54ZM1665.53,358.73h29.37v-4.67h-23.73v-21.32h21.32v-4.67h-21.32v-21h23.73v-4.67h-29.37v56.32ZM1729.01,333.46h23.66c-.27,4.18-1.36,7.84-3.26,10.98-1.91,3.14-4.43,5.55-7.56,7.24-3.14,1.69-6.67,2.53-10.58,2.53-4.19,0-7.94-.97-11.27-2.9-3.32-1.93-5.95-4.69-7.88-8.29-1.93-3.59-2.89-7.75-2.89-12.47s.96-8.86,2.89-12.43c1.93-3.57,4.56-6.32,7.88-8.25,3.33-1.93,7.08-2.9,11.27-2.9,4.45,0,8.33,1.06,11.63,3.18,3.3,2.12,5.75,5.03,7.36,8.73h6.6c-2.04-5.36-5.31-9.55-9.82-12.55-4.51-3-9.76-4.51-15.77-4.51-5.2,0-9.92,1.22-14.16,3.66-4.24,2.44-7.58,5.85-10.02,10.22-2.44,4.37-3.66,9.32-3.66,14.84s1.22,10.47,3.66,14.84c2.44,4.37,5.78,7.78,10.02,10.22,4.24,2.44,8.96,3.66,14.16,3.66s9.59-1.15,13.64-3.46c4.05-2.31,7.28-5.46,9.69-9.45,2.41-3.99,3.75-8.46,4.02-13.39v-4.1h-29.61v4.59ZM1803.91,337.89c0,5.63-1.3,9.77-3.9,12.43-2.6,2.65-6.21,3.98-10.82,3.98s-8.25-1.34-10.9-4.02c-2.66-2.68-3.98-6.81-3.98-12.39v-35.4h-5.63v35.32c0,7.13,1.89,12.5,5.67,16.09,3.78,3.59,8.7,5.39,14.76,5.39s10.98-1.8,14.76-5.39c3.78-3.59,5.67-8.96,5.67-16.09v-35.32h-5.63v35.4ZM1844.3,334.83l14.48,23.9h-6.76l-13.92-23.49h-10.38v23.49h-5.63v-56.24h16.9c6.28,0,11.04,1.5,14.28,4.51,3.24,3,4.87,6.95,4.87,11.83,0,4.08-1.17,7.55-3.5,10.42-2.33,2.87-5.78,4.73-10.34,5.59ZM1839.07,330.65c4.4,0,7.71-1.07,9.94-3.22,2.22-2.15,3.34-5.01,3.34-8.61s-1.08-6.56-3.22-8.57c-2.15-2.01-5.53-3.02-10.14-3.02h-11.26v23.41h11.34ZM1892.33,303.21l20.44,55.51h-5.95l-4.91-13.36h-25.59l-4.91,13.36h-5.95l20.52-55.51h6.35ZM1900.22,340.71l-11.11-30.41-11.1,30.41h22.21ZM1958.55,349.72l-31.14-47.23h-5.63v56.24h5.63v-47.31l31.14,47.31h5.63v-56.24h-5.63v47.23ZM1990.77,309.65c3.3-1.93,7.01-2.9,11.14-2.9,4.67,0,8.65,1.07,11.95,3.22,3.3,2.15,5.75,5.12,7.36,8.93h6.6c-2.04-5.42-5.3-9.61-9.78-12.59-4.48-2.98-9.85-4.46-16.13-4.46-5.15,0-9.81,1.22-14,3.66-4.19,2.44-7.48,5.85-9.9,10.22-2.41,4.37-3.62,9.32-3.62,14.84s1.14,10.26,3.42,14.52c2.28,4.27,5.43,7.64,9.46,10.14,4.02,2.49,8.53,3.82,13.52,3.98v8.53h3.7c3.86,0,5.79,1.29,5.79,3.86,0,1.39-.47,2.43-1.41,3.1-.94.67-2.4,1-4.39,1h-6.92v3.78h8.04c2.84,0,5.12-.71,6.84-2.13,1.72-1.42,2.57-3.34,2.57-5.75s-.92-4.36-2.77-5.67c-1.85-1.32-4.36-1.92-7.52-1.81v-4.99c5.52-.43,10.28-2.1,14.28-5.03,4-2.92,6.93-6.85,8.81-11.79h-6.6c-1.61,3.76-4.06,6.69-7.36,8.81-3.3,2.12-7.28,3.18-11.95,3.18-4.13,0-7.84-.97-11.14-2.9-3.3-1.93-5.89-4.69-7.76-8.29-1.88-3.59-2.82-7.78-2.82-12.55s.94-8.97,2.82-12.59c1.88-3.62,4.46-6.4,7.76-8.33ZM2062.01,303.21l20.44,55.51h-5.95l-4.91-13.36h-25.59l-4.91,13.36h-5.95l20.52-55.51h6.35ZM2069.9,340.71l-11.11-30.41-11.1,30.41h22.21ZM2144.68,306.91c3.19,2.95,4.79,6.87,4.79,11.75s-1.58,8.72-4.75,11.67c-3.16,2.95-7.91,4.43-14.24,4.43h-11.34v23.98h-5.63v-56.24h16.98c6.27,0,11.01,1.47,14.2,4.42ZM2143.68,318.66c0-3.75-1.05-6.6-3.14-8.53-2.09-1.93-5.45-2.9-10.06-2.9h-11.34v22.69h11.34c8.79,0,13.19-3.75,13.19-11.26ZM2193.88,337.89c0,5.63-1.3,9.77-3.9,12.43-2.6,2.65-6.21,3.98-10.82,3.98s-8.25-1.34-10.9-4.02c-2.66-2.68-3.98-6.81-3.98-12.39v-35.4h-5.63v35.32c0,7.13,1.89,12.5,5.67,16.09,3.78,3.59,8.7,5.39,14.77,5.39s10.98-1.8,14.76-5.39c3.78-3.59,5.67-8.96,5.67-16.09v-35.32h-5.63v35.4ZM2186.48,285.19l-16.49,10.3v4.34l16.49-9.57v-5.07ZM2246.42,334.51c2.2,2.63,3.3,5.69,3.3,9.17,0,2.84-.71,5.4-2.13,7.68s-3.5,4.08-6.23,5.39c-2.73,1.32-6.01,1.97-9.82,1.97h-19.47v-56.24h18.91c5.68,0,10.01,1.31,12.99,3.94,2.98,2.63,4.47,6.03,4.47,10.22,0,3.49-.94,6.32-2.82,8.49s-4.29,3.69-7.24,4.54c3.16.59,5.84,2.2,8.04,4.83ZM2217.7,327.35h13.11c3.81,0,6.74-.9,8.81-2.7,2.06-1.79,3.1-4.28,3.1-7.44s-1.03-5.55-3.1-7.32c-2.07-1.77-5.08-2.65-9.05-2.65h-12.87v20.11ZM2244.08,343.12c0-3.38-1.19-6.07-3.58-8.09-2.39-2.01-5.59-3.02-9.62-3.02h-13.19v21.96h13.44c4.07,0,7.25-.97,9.53-2.9,2.28-1.93,3.42-4.59,3.42-7.96ZM2265.73,302.49h-5.63v56.24h25.83v-4.59h-20.19v-51.65ZM2293.96,358.73h5.63v-56.24h-5.63v56.24ZM2326.19,309.65c3.3-1.93,7.01-2.9,11.14-2.9,4.67,0,8.65,1.07,11.95,3.22,3.3,2.15,5.75,5.12,7.36,8.93h6.6c-2.04-5.42-5.3-9.61-9.78-12.59s-9.85-4.46-16.13-4.46c-5.15,0-9.82,1.22-14,3.66-4.19,2.44-7.48,5.85-9.9,10.22-2.41,4.37-3.62,9.32-3.62,14.84s1.21,10.46,3.62,14.8c2.41,4.34,5.71,7.74,9.9,10.18,4.18,2.44,8.85,3.66,14,3.66,6.22,0,11.59-1.47,16.09-4.42,4.51-2.95,7.78-7.11,9.82-12.47h-6.6c-1.61,3.76-4.06,6.69-7.36,8.81-3.3,2.12-7.28,3.18-11.95,3.18-4.13,0-7.84-.97-11.14-2.9-3.3-1.93-5.89-4.69-7.76-8.29-1.88-3.59-2.82-7.78-2.82-12.55s.94-8.97,2.82-12.59c1.88-3.62,4.46-6.4,7.76-8.33ZM2417.87,358.73h-5.95l-4.91-13.36h-25.59l-4.91,13.36h-5.95l20.52-55.51h6.36l20.44,55.51ZM2405.32,340.71l-11.11-30.41-11.1,30.41h22.21Z"/>
  <path class="cls-1" d="M1496.66,155.33c1.98,5.54,2.97,11.82,2.97,18.84s-1.1,13.75-3.31,19.65c-2.21,5.9-5.27,11.17-9.18,15.8-3.92,4.64-8.56,8.67-13.91,12.09-5.36,3.42-11.19,6.24-17.49,8.44-6.3,2.21-12.92,3.85-19.85,4.93-6.93,1.08-13.96,1.62-21.07,1.62-12.25,0-23.66-1.06-34.24-3.17-10.58-2.11-19.78-5.78-27.62-11.01-7.83-5.22-14.07-12.24-18.7-21.07-4.64-8.82-7.09-19.94-7.36-33.36h52.8c.18,5.4,1.03,9.97,2.57,13.71,1.53,3.74,3.76,6.75,6.68,9.05,2.92,2.3,6.55,3.96,10.87,5,4.32,1.04,9.32,1.55,14.99,1.55,3.78,0,7.61-.31,11.48-.95,3.87-.63,7.4-1.71,10.6-3.24,3.19-1.53,5.78-3.53,7.77-6.01,1.98-2.48,2.97-5.6,2.97-9.39s-1.58-6.93-4.73-9.45c-3.15-2.52-7.34-4.7-12.56-6.55-5.22-1.84-11.21-3.49-17.96-4.93-6.75-1.44-13.69-2.92-20.8-4.46-5.04-1.08-10.06-2.3-15.06-3.65-5-1.35-9.77-2.99-14.32-4.93-4.55-1.93-8.78-4.25-12.69-6.96-3.92-2.7-7.32-5.99-10.2-9.86-2.88-3.87-5.13-8.39-6.75-13.57-1.62-5.18-2.43-11.19-2.43-18.03,0-10.53,2.27-19.56,6.82-27.08,4.54-7.52,10.6-13.68,18.16-18.5,7.56-4.82,16.25-8.37,26.06-10.67,9.81-2.3,19.99-3.44,30.52-3.44,11.97,0,23.18,1.26,33.63,3.78,10.44,2.52,19.51,6.37,27.21,11.55,7.7,5.18,13.71,11.68,18.03,19.51s6.39,17.06,6.21,27.69h-52.67c0-4.23-.79-7.79-2.36-10.67-1.58-2.88-3.76-5.24-6.55-7.09-2.79-1.84-6.1-3.17-9.93-3.98-3.83-.81-7.95-1.22-12.36-1.22-3.42,0-6.84.27-10.26.81-3.42.54-6.51,1.46-9.25,2.77-2.75,1.31-4.98,3.06-6.69,5.27-1.71,2.21-2.57,4.98-2.57,8.31,0,2.88.99,5.36,2.97,7.43,1.98,2.07,4.59,3.87,7.83,5.4,3.24,1.53,6.98,2.79,11.21,3.78,4.23.99,8.55,1.85,12.96,2.57,7.2,1.08,14.18,2.41,20.93,3.98,6.75,1.58,13.1,3.51,19.04,5.81,5.94,2.3,11.39,5,16.34,8.1,4.95,3.11,9.23,6.8,12.83,11.07,3.6,4.28,6.39,9.18,8.37,14.72ZM1578.09,154.59h87.38v-43.22h-87.38v-27.01h92.24v-45.92h-143.69v195.01h143.83v-45.92h-92.37v-32.95ZM1789.99,120.15v39.43h45.65c-.27.72-.56,1.58-.88,2.57-.32.99-.61,1.85-.88,2.57-1.44,3.6-3.49,6.82-6.15,9.66-2.66,2.84-5.74,5.25-9.25,7.23-3.51,1.98-7.36,3.49-11.55,4.52-4.19,1.04-8.58,1.55-13.17,1.55-7.2,0-13.62-1.28-19.24-3.85-5.63-2.57-10.38-6.17-14.25-10.8-3.87-4.64-6.82-10.13-8.85-16.48s-3.04-13.3-3.04-20.87,1.01-14.22,3.04-20.53c2.03-6.3,4.97-11.75,8.85-16.34,3.87-4.59,8.64-8.19,14.32-10.8,5.67-2.61,12.11-3.92,19.31-3.92,6.66,0,12.96,1.17,18.91,3.51,5.94,2.34,10.98,5.94,15.13,10.8.72.72,1.35,1.44,1.89,2.16.54.72,1.08,1.44,1.62,2.16h58.75c-2.79-11.07-7.32-20.8-13.57-29.17-6.26-8.37-13.69-15.37-22.28-21-8.6-5.63-18.08-9.86-28.43-12.69-10.35-2.84-20.98-4.25-31.87-4.25-14.41,0-27.69,2.34-39.84,7.02-12.15,4.68-22.62,11.39-31.4,20.12-8.78,8.73-15.62,19.29-20.53,31.67-4.91,12.38-7.36,26.22-7.36,41.53s2.43,29.31,7.29,41.73c4.86,12.42,11.66,23,20.39,31.74,8.73,8.73,19.13,15.46,31.2,20.19,12.06,4.73,25.3,7.09,39.7,7.09,12.87,0,24.87-1.76,35.99-5.27,11.12-3.51,21.02-8.66,29.71-15.46,8.69-6.8,15.91-15.26,21.68-25.39,5.76-10.13,9.63-21.81,11.61-35.05v-35.65l-102.5.27Z"/>
</svg>